<svg width="290" height="80" viewBox="0 0 290 80" fill="none" xmlns="http://www.w3.org/2000/svg">
<path fill-rule="evenodd" clip-rule="evenodd" d="M37.619 13.8334C36.8622 13.7775 36.1035 13.7495 35.3446 13.7495V9.33334C36.2126 9.33377 37.0802 9.36617 37.9458 9.4305L37.619 13.8334ZM46.4694 15.8206C45.0537 15.2744 43.5998 14.833 42.1193 14.5002L43.0865 10.1901C44.7779 10.5699 46.4429 11.0733 48.0593 11.7004L46.4694 15.8206ZM52.5198 18.9561C51.8884 18.535 51.2417 18.1373 50.581 17.7637L52.7583 13.9217C54.2683 14.7772 55.7134 15.7426 57.0819 16.8098L54.3659 20.2941C53.7671 19.8271 53.1513 19.3822 52.5198 18.9605V18.9561ZM60.6194 26.8609C59.7458 25.6199 58.7819 24.4449 57.7355 23.3457L60.933 20.2986C62.1254 21.5571 63.2295 22.9041 64.232 24.3172L60.6194 26.8609ZM63.9052 32.8315C63.6153 32.1313 63.3001 31.442 62.9601 30.7647L66.9039 28.7775C67.6838 30.3279 68.3481 31.9339 68.8912 33.5822L64.6957 34.9645C64.4584 34.244 64.1947 33.5326 63.9052 32.8315ZM66.2458 43.9027C66.2101 42.385 66.0625 40.8721 65.8042 39.3762L70.1543 38.6254C70.4502 40.33 70.6225 42.0612 70.6666 43.7923L66.2503 43.9027H66.2458ZM65.6673 50.6947C65.813 49.9439 65.9323 49.1976 66.025 48.4425L70.4105 48.9856C70.1983 50.7086 69.8588 52.4135 69.3947 54.0862L65.1373 52.9071C65.3405 52.1785 65.5172 51.441 65.6673 50.6947ZM61.4629 61.2006C62.2755 59.9199 62.991 58.5774 63.6093 57.1908L67.6458 58.9793C66.9392 60.5691 66.1222 62.0971 65.1948 63.5632L61.4629 61.2006ZM57.2056 66.522C57.7444 65.9833 58.2611 65.4268 58.7513 64.8527L62.0989 67.7365C61.532 68.3937 60.9413 69.0301 60.3279 69.6442L57.2056 66.522Z" fill="#4E84D5"/>
<path fill-rule="evenodd" clip-rule="evenodd" d="M35.3447 13.7495C30.2609 13.7498 25.2557 15.0038 20.7723 17.4004C16.289 19.797 12.4659 23.2622 9.64171 27.4891C6.8175 31.716 5.07933 36.5741 4.58117 41.6331C4.083 46.6921 4.84022 51.7959 6.78574 56.4924C8.73125 61.1889 11.805 65.3331 15.7348 68.5581C19.6646 71.783 24.3291 73.9891 29.3151 74.981C34.3012 75.9728 39.4549 75.7198 44.3198 74.2443C49.1847 72.7688 53.6107 70.1164 57.2056 66.522L60.328 69.6442C56.2196 73.7546 51.1607 76.7883 45.5996 78.4764C40.0385 80.1646 34.1468 80.455 28.4466 79.3221C22.7464 78.1891 17.4136 75.6677 12.9208 71.9813C8.42802 68.295 4.9139 63.5574 2.68982 58.1883C0.465737 52.8193 -0.399636 46.9846 0.170374 41.2012C0.740383 35.4178 2.72818 29.8643 5.95763 25.0327C9.18708 20.2011 13.5585 16.2406 18.6845 13.5022C23.8105 10.7637 29.5329 9.3318 35.3447 9.33334V13.7495Z" fill="#2B3C54"/>
<path fill-rule="evenodd" clip-rule="evenodd" d="M33.1364 22.5817C33.722 22.5817 34.2837 22.8143 34.6978 23.2284C35.1119 23.6425 35.3446 24.2041 35.3446 24.7897V47.7977L49.6889 55.994C50.1826 56.2918 50.5403 56.7709 50.6854 57.3289C50.8305 57.8869 50.7516 58.4796 50.4655 58.9802C50.1794 59.4808 49.7089 59.8496 49.1545 60.0079C48.6 60.1662 48.0056 60.1013 47.4984 59.8272L32.0411 50.9949C31.7032 50.8019 31.4222 50.523 31.2268 50.1864C31.0314 49.8498 30.9283 49.4676 30.9282 49.0784V24.7897C30.9282 24.2041 31.1609 23.6425 31.575 23.2284C31.9891 22.8143 32.5508 22.5817 33.1364 22.5817Z" fill="#4E84D5"/>
<path d="M91.7546 68.9173H93.8186C93.8186 70.368 93.456 71.4827 92.7306 72.2613C92.0053 73.04 90.9813 73.4293 89.6586 73.4293C86.7466 73.4293 85.2906 71.7173 85.2906 68.2933V67.3333C85.2906 64.6347 86.0373 62.944 87.5306 62.2613C88.1173 61.984 88.8266 61.8453 89.6586 61.8453C90.8746 61.8453 91.8613 62.1813 92.6186 62.8533C93.3866 63.5147 93.7706 64.4747 93.7706 65.7333H91.6906C91.5733 65.104 91.3653 64.6293 91.0666 64.3093C90.768 63.9893 90.2986 63.8293 89.6586 63.8293C88.912 63.8293 88.3573 64.064 87.9946 64.5333C87.7386 64.864 87.5893 65.4293 87.5466 66.2293C87.5253 66.4853 87.5146 66.832 87.5146 67.2693V68.2613C87.5146 69.488 87.6853 70.3253 88.0266 70.7733C88.3786 71.2213 88.9226 71.4453 89.6586 71.4453C90.4053 71.4453 90.9173 71.2427 91.1946 70.8373C91.4826 70.4213 91.6693 69.7813 91.7546 68.9173ZM107.553 73.3333H105.233L104.593 71.3653H100.769L100.145 73.3333H97.8254L101.473 62.9013C101.633 62.5387 101.809 62.288 102.001 62.1493C102.204 62.0107 102.449 61.9413 102.737 61.9413C103.025 61.9413 103.255 62.0053 103.425 62.1333C103.607 62.2613 103.767 62.5173 103.905 62.9013L107.553 73.3333ZM104.081 69.4933L102.737 64.9813L101.329 69.4933H104.081ZM119.341 73.3333H115.949C114.669 73.3333 113.741 73.088 113.165 72.5973C112.599 72.096 112.317 71.2853 112.317 70.1653V61.9413H114.541V70.1653C114.541 70.6133 114.642 70.9227 114.845 71.0933C115.047 71.264 115.415 71.3493 115.949 71.3493H119.341V73.3333ZM131.817 73.3333H127.785C126.505 73.3333 125.604 73.1147 125.081 72.6773C124.569 72.2293 124.313 71.4453 124.313 70.3253V61.9413H131.817V63.9253H126.537V66.5973H130.233L130.073 68.5813H126.537V70.1653C126.537 70.6133 126.639 70.9227 126.841 71.0933C127.044 71.264 127.412 71.3493 127.945 71.3493H131.817V73.3333ZM146.081 61.9413V72.1813C146.081 72.5333 145.974 72.8373 145.761 73.0933C145.548 73.3387 145.297 73.4613 145.009 73.4613C144.273 73.4613 143.67 73.0347 143.201 72.1813L139.265 66.0213V73.3333H137.041V61.9413H139.185L143.857 69.3973V61.9413H146.081ZM160.18 67.5893L160.196 68.8213C160.154 69.6 160.058 70.256 159.908 70.7893C159.759 71.3227 159.466 71.808 159.028 72.2453C158.303 72.9707 157.247 73.3333 155.86 73.3333C154.228 73.3333 153.108 73.12 152.5 72.6933C151.892 72.256 151.588 71.472 151.588 70.3413V61.9413H156.02C157.3 61.9413 158.303 62.304 159.028 63.0293C159.615 63.616 159.962 64.3307 160.068 65.1733C160.143 65.7707 160.18 66.576 160.18 67.5893ZM157.476 70.6453C157.679 70.4 157.807 70.064 157.86 69.6373C157.924 69.2 157.956 68.5227 157.956 67.6053C157.956 66.688 157.924 66.0267 157.86 65.6213C157.807 65.2053 157.679 64.8747 157.476 64.6293C157.092 64.16 156.538 63.9253 155.812 63.9253H153.812V70.2293C153.812 70.656 153.956 70.9493 154.244 71.1093C154.532 71.2693 155.044 71.3493 155.78 71.3493C156.527 71.3493 157.092 71.1147 157.476 70.6453ZM173.975 73.3333H171.655L171.015 71.3653H167.191L166.567 73.3333H164.247L167.895 62.9013C168.055 62.5387 168.231 62.288 168.423 62.1493C168.626 62.0107 168.871 61.9413 169.159 61.9413C169.447 61.9413 169.677 62.0053 169.847 62.1333C170.029 62.2613 170.189 62.5173 170.327 62.9013L173.975 73.3333ZM170.503 69.4933L169.159 64.9813L167.751 69.4933H170.503ZM187.362 73.3333H184.786L182.562 69.1093H180.962V73.3333H178.738V64.3893C178.738 63.536 178.936 62.9173 179.33 62.5333C179.725 62.1387 180.386 61.9413 181.314 61.9413H183.202C184.333 61.9413 185.229 62.288 185.89 62.9813C186.562 63.664 186.898 64.5333 186.898 65.5893C186.898 66.3573 186.696 67.024 186.29 67.5893C185.896 68.144 185.405 68.528 184.818 68.7413L187.362 73.3333ZM183.058 67.2533C183.528 67.2533 183.912 67.0933 184.21 66.7733C184.52 66.4427 184.674 66.0373 184.674 65.5573C184.674 65.0667 184.525 64.672 184.226 64.3733C183.938 64.0747 183.549 63.9253 183.058 63.9253H181.954C181.293 63.9253 180.962 64.2613 180.962 64.9333V67.2533H183.058ZM207.582 70.0533C207.582 71.1093 207.294 71.92 206.718 72.4853C206.153 73.0507 205.358 73.3333 204.334 73.3333H202.798C201.539 73.3333 200.643 73.1147 200.11 72.6773C199.587 72.24 199.326 71.4827 199.326 70.4053V61.9413H204.142C205.23 61.9413 206.046 62.2133 206.59 62.7573C207.145 63.3013 207.422 64.0693 207.422 65.0613C207.422 65.6373 207.273 66.128 206.974 66.5333C206.686 66.9387 206.366 67.2267 206.014 67.3973C207.059 67.888 207.582 68.7733 207.582 70.0533ZM203.966 66.3893C204.787 66.3893 205.198 65.9787 205.198 65.1573C205.198 64.336 204.787 63.9253 203.966 63.9253H201.55V66.3893H203.966ZM205.358 69.9413C205.358 69.4293 205.267 69.0453 205.086 68.7893C204.905 68.5227 204.579 68.3893 204.11 68.3893H201.55V70.1813C201.55 70.6187 201.657 70.9227 201.87 71.0933C202.094 71.264 202.457 71.3493 202.958 71.3493H204.11C204.942 71.3493 205.358 70.88 205.358 69.9413ZM220.081 73.3333H216.689C215.409 73.3333 214.481 73.088 213.905 72.5973C213.34 72.096 213.057 71.2853 213.057 70.1653V61.9413H215.281V70.1653C215.281 70.6133 215.382 70.9227 215.585 71.0933C215.788 71.264 216.156 71.3493 216.689 71.3493H220.081V73.3333ZM233.406 67.1093V67.9733C233.406 69.8827 233.043 71.2693 232.318 72.1333C231.603 72.9973 230.451 73.4293 228.862 73.4293C227.273 73.4293 226.121 72.9973 225.406 72.1333C224.702 71.2693 224.35 69.8667 224.35 67.9253V67.0933C224.35 65.3227 224.707 64.0053 225.422 63.1413C226.147 62.2773 227.289 61.8453 228.846 61.8453C230.414 61.8453 231.566 62.2827 232.302 63.1573C233.038 64.032 233.406 65.3493 233.406 67.1093ZM231.182 67.9253V67.3333C231.182 66.3093 231.054 65.4933 230.798 64.8853C230.499 64.1813 229.859 63.8293 228.878 63.8293C227.886 63.8293 227.241 64.1813 226.942 64.8853C226.697 65.4613 226.574 66.2773 226.574 67.3333V67.9253C226.574 69.3013 226.766 70.2293 227.15 70.7093C227.299 70.912 227.518 71.088 227.806 71.2373C228.105 71.376 228.457 71.4453 228.862 71.4453C229.278 71.4453 229.63 71.376 229.918 71.2373C230.206 71.0987 230.43 70.928 230.59 70.7253C230.75 70.5227 230.873 70.256 230.958 69.9253C231.107 69.4027 231.182 68.736 231.182 67.9253ZM244.311 68.9173H246.375C246.375 70.368 246.012 71.4827 245.287 72.2613C244.562 73.04 243.538 73.4293 242.215 73.4293C239.303 73.4293 237.847 71.7173 237.847 68.2933V67.3333C237.847 64.6347 238.594 62.944 240.087 62.2613C240.674 61.984 241.383 61.8453 242.215 61.8453C243.431 61.8453 244.418 62.1813 245.175 62.8533C245.943 63.5147 246.327 64.4747 246.327 65.7333H244.247C244.13 65.104 243.922 64.6293 243.623 64.3093C243.324 63.9893 242.855 63.8293 242.215 63.8293C241.468 63.8293 240.914 64.064 240.551 64.5333C240.295 64.864 240.146 65.4293 240.103 66.2293C240.082 66.4853 240.071 66.832 240.071 67.2693V68.2613C240.071 69.488 240.242 70.3253 240.583 70.7733C240.935 71.2213 241.479 71.4453 242.215 71.4453C242.962 71.4453 243.474 71.2427 243.751 70.8373C244.039 70.4213 244.226 69.7813 244.311 68.9173ZM256.606 67.3013L260.526 73.3333H257.934L255.246 69.0293L253.694 71.1093V73.3333H251.47V61.9413H253.694V68.3093L257.998 61.9413H260.238L256.606 67.3013ZM272.814 73.3333H268.782C267.502 73.3333 266.601 73.1147 266.078 72.6773C265.566 72.2293 265.31 71.4453 265.31 70.3253V61.9413H272.814V63.9253H267.534V66.5973H271.23L271.07 68.5813H267.534V70.1653C267.534 70.6133 267.636 70.9227 267.838 71.0933C268.041 71.264 268.409 71.3493 268.942 71.3493H272.814V73.3333ZM286.822 73.3333H284.246L282.022 69.1093H280.422V73.3333H278.198V64.3893C278.198 63.536 278.395 62.9173 278.79 62.5333C279.184 62.1387 279.846 61.9413 280.774 61.9413H282.662C283.792 61.9413 284.688 62.288 285.35 62.9813C286.022 63.664 286.358 64.5333 286.358 65.5893C286.358 66.3573 286.155 67.024 285.75 67.5893C285.355 68.144 284.864 68.528 284.278 68.7413L286.822 73.3333ZM282.518 67.2533C282.987 67.2533 283.371 67.0933 283.67 66.7733C283.979 66.4427 284.134 66.0373 284.134 65.5573C284.134 65.0667 283.984 64.672 283.686 64.3733C283.398 64.0747 283.008 63.9253 282.518 63.9253H281.414C280.752 63.9253 280.422 64.2613 280.422 64.9333V67.2533H282.518Z" fill="#2B3C54"/>
<path d="M103.264 35.752H109.456C109.456 40.104 108.368 43.448 106.192 45.784C104.016 48.12 100.944 49.288 96.976 49.288C88.24 49.288 83.872 44.152 83.872 33.88V31C83.872 22.904 86.112 17.832 90.592 15.784C92.352 14.952 94.48 14.536 96.976 14.536C100.624 14.536 103.584 15.544 105.856 17.56C108.16 19.544 109.312 22.424 109.312 26.2H103.072C102.72 24.312 102.096 22.888 101.2 21.928C100.304 20.968 98.896 20.488 96.976 20.488C94.736 20.488 93.072 21.192 91.984 22.6C91.216 23.592 90.768 25.288 90.64 27.688C90.576 28.456 90.544 29.496 90.544 30.808V33.784C90.544 37.464 91.056 39.976 92.08 41.32C93.136 42.664 94.768 43.336 96.976 43.336C99.216 43.336 100.752 42.728 101.584 41.512C102.448 40.264 103.008 38.344 103.264 35.752ZM136.212 49H126.036C122.196 49 119.412 48.264 117.684 46.792C115.988 45.288 115.14 42.856 115.14 39.496V14.824H121.812V39.496C121.812 40.84 122.116 41.768 122.724 42.28C123.332 42.792 124.436 43.048 126.036 43.048H136.212V49ZM166.587 30.328V32.92C166.587 38.648 165.499 42.808 163.323 45.4C161.179 47.992 157.723 49.288 152.955 49.288C148.187 49.288 144.731 47.992 142.587 45.4C140.475 42.808 139.419 38.6 139.419 32.776V30.28C139.419 24.968 140.491 21.016 142.635 18.424C144.811 15.832 148.235 14.536 152.907 14.536C157.611 14.536 161.067 15.848 163.275 18.472C165.483 21.096 166.587 25.048 166.587 30.328ZM159.915 32.776V31C159.915 27.928 159.531 25.48 158.763 23.656C157.867 21.544 155.947 20.488 153.003 20.488C150.027 20.488 148.091 21.544 147.195 23.656C146.459 25.384 146.091 27.832 146.091 31V32.776C146.091 36.904 146.667 39.688 147.819 41.128C148.267 41.736 148.923 42.264 149.787 42.712C150.683 43.128 151.739 43.336 152.955 43.336C154.203 43.336 155.259 43.128 156.123 42.712C156.987 42.296 157.659 41.784 158.139 41.176C158.619 40.568 158.987 39.768 159.243 38.776C159.691 37.208 159.915 35.208 159.915 32.776ZM189.702 35.752H195.894C195.894 40.104 194.806 43.448 192.63 45.784C190.454 48.12 187.382 49.288 183.414 49.288C174.678 49.288 170.31 44.152 170.31 33.88V31C170.31 22.904 172.55 17.832 177.03 15.784C178.79 14.952 180.918 14.536 183.414 14.536C187.062 14.536 190.022 15.544 192.294 17.56C194.598 19.544 195.75 22.424 195.75 26.2H189.51C189.158 24.312 188.534 22.888 187.638 21.928C186.742 20.968 185.334 20.488 183.414 20.488C181.174 20.488 179.51 21.192 178.422 22.6C177.654 23.592 177.206 25.288 177.078 27.688C177.014 28.456 176.982 29.496 176.982 30.808V33.784C176.982 37.464 177.494 39.976 178.518 41.32C179.574 42.664 181.206 43.336 183.414 43.336C185.654 43.336 187.19 42.728 188.022 41.512C188.886 40.264 189.446 38.344 189.702 35.752ZM216.986 30.904L228.746 49H220.97L212.906 36.088L208.25 42.328V49H201.578V14.824H208.25V33.928L221.162 14.824H227.882L216.986 30.904ZM256.012 49H243.916C240.076 49 237.372 48.344 235.804 47.032C234.268 45.688 233.5 43.336 233.5 39.976V14.824H256.012V20.776H240.172V28.792H251.26L250.78 34.744H240.172V39.496C240.172 40.84 240.476 41.768 241.084 42.28C241.692 42.792 242.796 43.048 244.396 43.048H256.012V49ZM288.434 49H280.706L274.034 36.328H269.234V49H262.562V22.168C262.562 19.608 263.154 17.752 264.338 16.6C265.522 15.416 267.506 14.824 270.29 14.824H275.954C279.346 14.824 282.034 15.864 284.018 17.944C286.034 19.992 287.042 22.6 287.042 25.768C287.042 28.072 286.434 30.072 285.218 31.768C284.034 33.432 282.562 34.584 280.802 35.224L288.434 49ZM275.522 30.76C276.93 30.76 278.082 30.28 278.978 29.32C279.906 28.328 280.37 27.112 280.37 25.672C280.37 24.2 279.922 23.016 279.026 22.12C278.162 21.224 276.994 20.776 275.522 20.776H272.21C270.226 20.776 269.234 21.784 269.234 23.8V30.76H275.522Z" fill="#2B3C54"/>
</svg>
